<?xml version="1.0" standalone="no"?>
<!DOCTYPE svg PUBLIC "-//W3C//DTD SVG 20010904//EN"
 "http://www.w3.org/TR/2001/REC-SVG-20010904/DTD/svg10.dtd">
<svg version="1.0" xmlns="http://www.w3.org/2000/svg"
 width="512.000000pt" height="512.000000pt" viewBox="0 0 512.000000 512.000000"
 preserveAspectRatio="xMidYMid meet">

<g transform="translate(0.000000,512.000000) scale(0.100000,-0.100000)"
fill="#000000" stroke="none">
<path d="M3191 4974 c-92 -33 -168 -101 -212 -186 -16 -32 -34 -58 -40 -58
-16 0 -110 -92 -137 -135 -14 -22 -33 -65 -43 -95 -9 -30 -23 -56 -31 -58 -9
-2 -475 78 -1036 178 -562 99 -1029 180 -1039 180 -16 0 -52 -190 -334 -1792
-173 -986 -313 -1794 -309 -1796 3 -1 388 -70 855 -152 466 -82 852 -153 856
-157 4 -4 53 -179 109 -388 56 -209 103 -381 105 -383 7 -8 2511 670 2520 682
40 53 659 1143 657 1155 -6 30 -693 2595 -695 2598 -2 1 -189 -47 -416 -108
-227 -61 -416 -108 -419 -105 -3 3 4 16 16 29 11 12 33 47 49 77 25 50 28 64
28 160 0 94 -3 111 -28 161 -33 68 -119 152 -184 181 -64 29 -209 35 -272 12z
m188 -140 c111 -33 177 -147 151 -263 -10 -47 -21 -64 -64 -107 -65 -64 -120
-81 -204 -63 -46 9 -64 20 -108 63 -42 43 -54 62 -64 108 -11 46 -10 63 4 110
20 70 79 132 145 152 60 19 77 19 140 0z m-1605 -377 l968 -172 19 -50 c10
-27 23 -58 29 -69 7 -10 8 -22 3 -26 -4 -4 -408 -114 -898 -245 -490 -131
-893 -241 -897 -244 -4 -4 148 -585 337 -1291 190 -707 344 -1288 343 -1291
-3 -5 -1495 255 -1502 262 -3 2 126 740 285 1639 159 899 289 1641 289 1648 0
7 12 12 28 11 15 0 463 -78 996 -172z m1234 -54 c34 -48 91 -94 152 -122 47
-22 68 -26 152 -26 54 0 98 -2 98 -4 0 -3 -12 -22 -26 -43 -58 -83 -176 -130
-275 -109 -65 14 -96 31 -142 78 -47 46 -64 77 -78 142 -13 60 1 139 32 190
l21 34 22 -55 c13 -30 32 -69 44 -85z m1623 -1201 c175 -647 315 -1179 314
-1181 -5 -4 -103 -31 -515 -141 -190 -51 -346 -94 -348 -95 -1 -1 50 -194 113
-430 63 -235 115 -431 115 -435 0 -4 -53 -21 -117 -38 -65 -17 -572 -153
-1127 -301 -555 -149 -1014 -271 -1020 -271 -7 0 -186 654 -440 1607 -236 885
-431 1613 -433 1619 -3 7 85 35 224 72 125 34 506 136 847 227 340 91 620 164
623 162 2 -2 -16 -47 -40 -99 l-44 -95 64 -32 c36 -18 68 -30 70 -27 3 3 27
51 54 108 l48 103 104 -4 c75 -2 120 1 159 13 82 23 170 87 222 159 l44 61
379 102 c208 56 380 99 383 97 3 -3 147 -534 321 -1181z m34 -1739 c-120 -208
-223 -383 -229 -390 -8 -9 -31 63 -89 280 -43 161 -79 301 -80 311 -2 17 34
29 303 101 168 45 307 81 309 79 1 -1 -95 -173 -214 -381z"/>
<path d="M3951 3639 c-119 -36 -191 -137 -191 -267 0 -111 49 -189 154 -245
64 -34 174 -31 244 8 156 85 192 292 74 426 -61 69 -191 106 -281 78z m139
-154 c82 -42 80 -179 -4 -219 -69 -32 -137 -8 -168 60 -48 111 64 215 172 159z"/>
<path d="M3080 3614 c-52 -14 -99 -29 -104 -34 -8 -8 169 -695 183 -712 9 -10
183 37 238 63 69 33 129 94 165 167 31 63 33 73 33 172 0 101 -1 108 -34 168
-93 172 -265 235 -481 176z m246 -148 c171 -80 170 -324 -2 -403 -31 -14 -57
-23 -59 -22 -3 4 -115 423 -115 432 0 9 31 15 80 16 28 0 64 -8 96 -23z"/>
<path d="M1810 3273 c-151 -41 -276 -76 -277 -77 -2 -2 5 -33 14 -69 12 -46
23 -67 33 -67 8 0 57 12 109 26 51 14 94 24 96 22 1 -2 36 -131 78 -287 42
-156 78 -285 80 -288 9 -8 137 30 137 41 0 6 -34 137 -75 290 -41 154 -73 282
-70 284 3 3 49 17 102 31 97 26 98 27 97 56 -2 49 -24 115 -37 114 -7 0 -136
-34 -287 -76z"/>
<path d="M2427 3229 c-123 -29 -205 -122 -215 -245 -12 -159 93 -282 252 -292
91 -6 157 20 217 85 54 59 72 104 73 184 0 112 -65 212 -166 253 -47 19 -116
26 -161 15z m109 -158 c64 -29 90 -100 59 -161 -34 -66 -122 -92 -181 -54 -81
53 -69 181 20 220 41 18 53 17 102 -5z"/>
<path d="M3168 2371 c-708 -190 -1290 -349 -1293 -352 -5 -6 21 -129 30 -137
1 -1 67 15 146 37 79 21 662 177 1294 346 633 169 1153 310 1157 314 10 9 -24
141 -36 140 -6 -1 -590 -157 -1298 -348z"/>
<path d="M3865 2144 c-374 -101 -952 -256 -1285 -345 -333 -89 -606 -163 -608
-164 -1 -1 6 -32 15 -68 11 -43 23 -67 32 -67 8 0 293 75 635 166 1721 461
1947 522 1953 528 3 3 -2 35 -12 71 -12 48 -22 65 -34 64 -9 -1 -322 -84 -696
-185z"/>
</g>
</svg>
